<?xml version="1.0" encoding="utf-8"?>
<!-- Generator: Adobe Illustrator 18.1.1, SVG Export Plug-In . SVG Version: 6.00 Build 0)  -->
<!DOCTYPE svg PUBLIC "-//W3C//DTD SVG 1.1//EN" "http://www.w3.org/Graphics/SVG/1.1/DTD/svg11.dtd">
<svg version="1.1" id="Layer_2" xmlns="http://www.w3.org/2000/svg" xmlns:xlink="http://www.w3.org/1999/xlink" x="0px" y="0px"
	 viewBox="1.5 0 40 40" enable-background="new 1.5 0 40 40" xml:space="preserve">
<rect x="1.5" y="0" fill="#3A5897" width="40" height="40"/>
<path fill="#FFFFFF" d="M32.5,25.1h-5.6V40h-5.8V25.1h-4v-5.4h4c0,0,0-2.2,0-4.6c0-3.5,2.4-6.9,7.7-6.9c2.2,0,3.7,0.2,3.7,0.2v5
	c0,0-1.6,0-3.4,0c-1.9,0-2.2,1-2.2,2.4c0,0.2,0,0.2,0,0.2c0,0.3,0,1.4,0,3.7h5.9L32.5,25.1z"/>
</svg>
