<?xml version="1.0" encoding="utf-8"?>
<!-- Generator: Adobe Illustrator 18.1.1, SVG Export Plug-In . SVG Version: 6.00 Build 0)  -->
<!DOCTYPE svg PUBLIC "-//W3C//DTD SVG 1.1//EN" "http://www.w3.org/Graphics/SVG/1.1/DTD/svg11.dtd">
<svg version="1.1" id="Layer_1" xmlns="http://www.w3.org/2000/svg" xmlns:xlink="http://www.w3.org/1999/xlink" x="0px" y="0px"
	 viewBox="39.5 0 40.1 40.1" enable-background="new 39.5 0 40.1 40.1" xml:space="preserve">
<rect x="39.5" y="0" fill="#28AAE1" width="40.1" height="40.1"/>
<path fill="#FFFFFF" d="M71.3,14.8c0,0.2,0,0.5,0,0.6c0,7.5-5.5,16.2-15.5,16.2c-3.1,0-6-1-8.3-2.6c0.5,0,0.8,0,1.2,0
	c2.5,0,4.9-0.8,6.8-2.4c-2.3,0-4.3-1.6-5.1-3.8c0.3,0,0.6,0,0.9,0c0.5,0,0.9,0,1.4-0.2c-2.5-0.5-4.3-2.7-4.3-5.6l0,0
	c0.8,0.3,1.5,0.6,2.5,0.6c-1.4-1-2.5-2.7-2.5-4.6c0-1,0.2-1.9,0.8-2.9c2.6,3.4,6.8,5.8,11.2,5.9c0-0.3-0.2-0.8-0.2-1.3
	c0-3,2.5-5.6,5.4-5.6c1.5,0,2.9,0.6,4,1.8c1.2-0.2,2.3-0.6,3.4-1.3c-0.2,1.4-1.1,2.6-2.1,3.2c1.1-0.2,2.1-0.5,3.1-0.8
	C73.3,12.8,72.4,13.9,71.3,14.8z"/>
</svg>
